<?xml version="1.0" encoding="UTF-8"?>
<svg id="Camada_2" data-name="Camada 2" xmlns="http://www.w3.org/2000/svg" viewBox="0 0 189.75 94.47">
  <defs>
    <style>
      .cls-1 {
        fill-rule: evenodd;
      }

      .cls-1, .cls-2 {
        stroke-width: 0px;
      }
    </style>
  </defs>
  <g id="_Слой_2" data-name="Слой 2">
    <g>
      <path class="cls-1" d="m40.59,91.49h-19.56l-2.16,2.97H6.82l-3.96-3.96v-2.67l-2.85-2.62V23.08l5.44-5.44h5.22v2.14l-2.06,1.5v20.04l2.06,1.5v26.22l3.54,3.54h3.43l2.45,2.26h-7.34l4.39,4.39h13.19l1.07-1.48h16.26l1.78,2.45h15.15l1.39-1.91,13.59,13.59v.18h-11.11l-1.46-2h-5.53l-2.33-3.21h-15.15l-2.34,3.22-1.05,1.44h0Zm-35.07-2.01l2.5,2.39h7.4l-2.5-2.39h-7.4Zm10.45,1.65l.59-.59.59-.59h-2.36l.59.59.59.59h0Zm-10.52-14.66h6.52l-1.04-1.06h-6.52l1.04,1.06h0Zm1.47,1.84h6.52l-1.04-1.06h-6.52l1.04,1.06h0Zm1.47,1.84h6.52l-1.04-1.06h-6.52l1.04,1.06h0Zm-3.33-54.19v7.71l1.33-1.29v5.25l1.33-1.29v-12.96l-2.66,2.59h0Zm2.66,11.27l-1.33,1.29v1.22l1.33-1.29v-1.22h0Zm0,2.03l-1.33,1.29v1.22l1.33-1.29v-1.22Z"/>
      <path class="cls-1" d="m147.44,3.1h20.39l2.25-3.1h12.57l4.13,4.13v2.79l2.97,2.73v64.77l-5.67,5.67h-5.44v-2.23l2.15-1.56v-20.89l-2.15-1.56v-27.33l-3.69-3.69h-3.58l-2.55-2.36h7.65l-4.58-4.58h-13.75l-1.12,1.54h-16.95l-1.85-2.55h-15.79l-1.45,1.99-14.16-14.16v-.19h11.58l1.52,2.09h5.76l2.43,3.34h15.79l2.44-3.36,1.09-1.51h0Zm36.56,2.1l-2.61-2.49h-7.72l2.61,2.49h7.72Zm-10.89-1.72l-.62.62-.62.62h2.46l-.62-.62-.62-.62h0Zm10.96,15.28h-6.8l1.08,1.11h6.8l-1.08-1.11h0Zm-1.53-1.92h-6.8l1.08,1.11h6.8l-1.08-1.11h0Zm-1.53-1.92h-6.8l1.08,1.11h6.8l-1.08-1.11h0Zm3.47,56.48v-8.04l-1.38,1.35v-5.47l-1.38,1.35v13.51l2.77-2.7h0Zm-2.77-11.75l1.38-1.35v-1.27l-1.38,1.35v1.27h0Zm0-2.12l1.38-1.35v-1.27l-1.38,1.35v1.27Z"/>
      <g>
        <path class="cls-2" d="m40.28,43.29l2.22.1s.83.02,2.43.04c1.6.04,3.07.08,4.46.12,1.37.06,2.05.1,2.05.12,0,.04-.06.58-.19,1.64-.12,1.06-.27,1.66-.41,1.76-.08.06-.37.25-.44.31-.15.1-.52,1.16-1.16,3.17-.64,2.01-1,3.03-1.06,3.09-.04.04-.29.1-.77.21-.48.08-.81.12-1,.12l-.1-.02s.12-.77.5-2.16c.35-1.39.54-2.12.54-2.2h-.06c-.29,0-1,.06-2.09.21-1.39.19-2.78.31-4.17.37l-2.05.08-.33.5c-.27.44-.35.48-.83.48-1.45.02-2.24.1-2.38.25-.02.02-.02.04-.02.06,0,.15.52.27,1.02.27.15,0,.27,0,.33-.02.23-.04.54-.06.97-.06h.31c.58,0,.83-.17,1-.73.1-.35.54-.33.54-.1,0,.12-.37.89-1.1,2.3-.73,1.43-1.2,2.26-1.39,2.51-.06.1-.48.27-1.2.54l-1.06.39-.66-.5c-.33-.25-.73-.58-1.18-.97l-.54-.48.91-1.33c.58-.85.97-1.33,1.2-1.45.19-.08.27-.21.27-.37,0-.15.44-.87,1.29-2.18.85-1.31,1.37-2.01,1.51-2.11.06-.02.44-.06,1.1-.12.77-.06.93-.1.93-.25,0-.19-.12-.27-.35-.27-.06,0-.23.02-.54.04-.19.02-.37.04-.56.04-.12,0-.19-.02-.19-.06,0-.02,0-.04.02-.06,0,0,.71-.97,1.18-1.72l1.06-1.58Zm-1.14,5.08c-.15,0-.29.08-.46.25-.66.41.52.29.56-.17,0-.06-.04-.08-.1-.08Zm1.18-1.74c-.15-.02-.19.02-.12.17.06.15.12.19.23.15.06-.02.1-.06.08-.15,0-.08-.06-.15-.19-.17Zm1.53,1.76c-.08,0-.23.02-.44.06-.25.02-.27.1-.17.29.1.17.29.25.56.25.08,0,.27-.02.54-.08.33-.1.37-.29.04-.29-.17,0-.27-.04-.33-.12-.04-.06-.1-.1-.21-.1Zm6.55-2.78c0-.08-.08-.12-.23-.12h-.23c-1.06.02-1.27.12-1.41.46l-.15.31c-.44-.02-1.1-.04-1.99-.08-.89-.02-1.56-.06-1.99-.08l-.35.58c-.19.33-.27.54-.27.62,0,.06.68.12,2.05.15.31,0,1.31.04,3.03.1l1.02.04.21-.68c.15-.5.23-.85.27-1.06.02-.15.04-.21.04-.23Z"/>
        <path class="cls-2" d="m72.21,41.56h.83l-.08.42c-.02.1-.1.89-.19,1.37-.04.23-.08.39-.12.48-.02.06-2.03.77-6.01,2.07-3.98,1.31-6.01,2.01-6.12,2.12-.12.12-.19.27-.19.42,0,.23-.37.25-.37.6,0,.17-.35,1-1.04,2.51l-1.04,2.22c-.29.17-.73.42-1.29.77-.58.35-1.02.6-1.29.77l-.41,1.04c-.29.71-.54,1.1-.73,1.2-.08.06-.21.1-.29.1h-.04c0-.06.73-1.62,2.16-4.67l2.2-4.62-.56-.52c-.33-.29-.5-.5-.5-.6,0-.12,1.45-.1,1.51-.17.06-.06.19-.08.37-.08.48,0,.46-.25.02-.27l-.42-.06.35-.17c.23-.12.33-.25.33-.35,0-.06.29-.66.85-1.78.56-1.12.89-1.74,1-1.87.02-.02,1.41-.1,4.19-.25,2.78-.15,4.77-.23,5.95-.27.06,0,.08-.06.08-.21,0-.12.27-.19.83-.19Zm-11.01,4.67c-.33,0-.33.25,0,.25s.33-.25,0-.25Zm7.46-2.63c-.33,0-1.41.08-3.21.23-1.76.15-2.63.25-2.65.27-.08.12-.23.44-.44.91s-.29.75-.27.77c.08,0,1.22-.35,3.44-1.04,2.22-.68,3.32-1.06,3.32-1.12,0-.02-.06-.02-.19-.02Z"/>
        <path class="cls-2" d="m83.61,42.79l2.72.08c2.88.08,5.14.15,6.8.17,2.76.06,4.17.08,4.23.1.02,0,.02.02.02.06,0,.15-.15.46-.46.95l-.58.93h-5.97c-.12.17-.29.41-.52.75h-4.15c-.27.58-.5,1.02-.64,1.29l4.27-.1c1.58-.02,2.59-.04,3.03-.04.85,0,1.26.02,1.26.04,0,.06-.21.44-.6,1.08-.5.83-.64,1-.95,1.06-.23.04-1.76.25-4.65.6l-4.25.54-.58,1.12c-.29.58-.54,1.16-.5,1.16.19,0,3.09-.46,8.73-1.37.83-.15,1.37-.21,1.62-.21.15,0,.25.02.31.08.02.02.04.06.04.1,0,.15-.19.6-.58,1.33l-.66,1.31-6.53,1.41c-3.67.81-5.97,1.31-6.93,1.49h-.12c-.23,0-.58-.21-1.06-.6-1.22-1.02-1.49-1.27-1.49-1.51,0-.12.56-.97,1.68-2.59,1.12-1.6,1.72-2.41,1.82-2.47l.44-.06c.58-.08,1.24-.21,1.24-.27v-.04q-.02-.06.06-.06c.1,0,.17.04.21.12.06.08.66.12,1.8.12.85,0,1.27-.04,1.27-.1,0-.27-.44-.37-2.09-.46-.29-.02-.64-.02-1.04-.02-.5,0-.77.04-.79.1-.04.1-.12.08-.27-.06-.1-.1-.15-.17-.15-.23s.06-.19.17-.33c.06-.1.75-1.08,2.03-2.9l1.8-2.57Zm-6.28,10.45c.06-.02.08-.06.02-.08-.02-.02-.08-.02-.15,0-.15,0-.17.02-.06.06.06.02.12.04.19.02Zm4.81-.35c0-.06-.19-.1-.58-.1h-.48c-1.06.02-1.74.06-2.01.1-.27.04-.48.12-.6.27l-.23.27,1.62-.08c.93-.06,1.51-.1,1.78-.17.27-.04.41-.12.48-.25,0-.02.02-.02.02-.04Zm-1.66-4.75c.08.02.15.04.21.04.71-.06.12-.66-.19-.29-.19.15-.23.17-.02.25Zm5.02-.91h-.39c-.62,0-.23.31-.64.17h-.12c-.25,0-.64.04-1.16.12-.52.08-.85.15-.97.21-.15.06-.1.12.12.17.04.02.12.02.27.02.37,0,.87-.06,1.49-.17.6-.1.97-.21,1.12-.31l.29-.21Zm.33,5.31c-.66.04-.7.12-1.8.12-.81.02-1.24.06-1.35.17-.08.1-.06.19.06.25.08.02.23.04.46.04.44,0,.93-.02,1.53-.08.58-.04.89-.08.91-.15.02-.06.15-.08.37-.02.21.04.31-.02.31-.17,0-.12-.17-.19-.5-.17Zm-.29-4.71c-.15-.19-.17-.19-.44.12-.19.21-.23.35-.15.41.06.02.1.04.15.04.23,0,.39-.1.52-.29.06-.06.02-.15-.08-.29Zm2.63,4.69s-.12.06-.27.19c-.17.1-.15.17.04.19.35,0,.29-.37.23-.37Z"/>
        <path class="cls-2" d="m104.86,44.09c.08,0,.79.04,2.12.12,1,.08,2.05.12,3.15.12.83.02,2.32.08,4.48.19,2.14.12,3.24.21,3.28.25.02.02.21.29.54.83.25.39.37.66.37.81,0,.06-.02.1-.04.12-.12.12-1.22.52-3.3,1.18-1.97.64-3.11,1.04-3.38,1.2-.15.08-.48.21-.95.37-.52.14-.79.25-.79.31s.31.23.95.5c.62.27,1.02.39,1.16.39.06,0,.87.29,2.47.89,1.58.6,2.36.91,2.36.97,0,.1-.37.5-1.1,1.2-.75.68-1.18,1.04-1.29,1.04-.04,0-.52-.17-.81-.21-1.54-.39-2.3-.62-2.3-.71,0-.04.35-.1,1.06-.19,1.39-.17,1.68-.23,1.68-.46,0-.17-.52-.12-.79-.1-.23.02-1.33.1-1.54.1-.6.02-.91.06-.91.1,0,.02,0,.06.02.08.06.12.02.19-.08.21-.08-.02-.14-.04-.21-.1-.1-.12-.23-.17-.39-.12h-.04c-.23,0-.93-.23-2.09-.71-1.16-.46-2.12-.87-2.84-1.26l-1.14-.6-1.53,3.07c-1.04,2.03-1.6,3.05-1.68,3.05s-.29-.21-.64-.6c-.35-.42-.62-.77-.79-1.04-.06-.1-.1-.21-.1-.27,0-.17.27-.85.83-2.07.62-1.35,1-2.03,1.14-2.03.42,0,.08-.23.08-.31,0-.21.33-1.02.97-2.41.6-1.39,1.08-2.45,1.43-3.17.27-.6.42-.77.64-.77Zm8.58,2.05l-3.67-.02h-3.69l-.31.64c-.19.44-.29.71-.29.85,0,.17.15.31.44.44.17.06.31.1.44.1.25,0,1.04-.19,2.36-.56,1.62-.44,2.53-.71,2.72-.81.12-.06.52-.19,1.2-.41l.81-.23Zm-5.54,2.59c-.12,0-.17.04-.1.12.08.1.31.06.31-.08,0-.02-.06-.04-.21-.04Zm.83.12c-.1,0-.15.02-.08.08.1.1.27-.08.08-.08Zm.87,0c-.06.06,0,.1.17.12.23,0,.35-.02.35-.06,0-.1-.35-.17-.52-.06Zm.83,2.74s0-.06-.06-.08c-.02-.02-.06-.02-.12-.02-.33,0-.31.25-.08.25.15,0,.25-.04.27-.14Zm-.06-2.74c-.1,0-.15.02-.08.08.1.1.31-.08.08-.08Zm.93,2.74s0-.06-.04-.08c-.02-.02-.06-.02-.12-.02-.35,0-.33.25-.08.25.15,0,.23-.04.25-.14Zm3.28-.19h-.89c-.54,0-1.06.02-1.55.08l-.71.08.48.1c.15.02.27.04.39.04.15,0,.29-.02.44-.04.31-.06.68-.12,1.08-.17l.77-.1Zm-2.36.77c0-.1-.1-.17-.31-.17-.1,0-.19.04-.21.1-.1.17.29.25.44.19.06-.04.08-.08.08-.12Z"/>
        <path class="cls-2" d="m121.69,42.44c.19,0,.29.06.29.19,0,.1.19.17.54.23.35.06,1.45.17,3.28.31l2.51.21.48-.27c.29-.17.54-.25.73-.25.04,0,.17.02.39.04.39.06.58.15.58.25,0,.06,0,.1-.02.15-.06.27-.04.29.27.29.35,0,1.39.08,3.15.25,1.8.15,2.9.33,3.3.52.33.17.93.31,1.78.44.83.1,1.26.17,1.33.23.04.04,0,.12-.12.27-.06.1-.19.15-.41.15-.33,0-1.22-.1-2.68-.31l-2.92-.41-.87.39c-.52.23-.95.35-1.26.35-.06,0-.37-.02-.89-.04-.58-.04-1.43-.08-1.39-.08-.08,0-.58,1.02-1.49,3.07-.46,1.04-.81,1.85-1.08,2.43-.27.6-.56,1.22-.85,1.87-.29.64-.6,1.33-.93,2.05-.66,1.43-.83,1.72-1.02,1.72h-.06c-.31-.08-.42-.23-.42-.66,0-.19.04-.6.1-1.26.08-.81.15-1.29.21-1.45.04-.14.14-.25.31-.27.15-.02.27-.19.42-.46.12-.27.42-1.04.89-2.26.66-1.72,1.06-2.67,1.18-2.82.06-.06.08-.15.08-.29,0-.08.08-.39.27-.93.19-.52.27-.83.27-.89,0-.04-.46-.1-1.37-.19-1.45-.15-2.43-.25-2.92-.35-.52-.1-.91-.25-1.22-.48-.64-.46-.95-.89-.95-1.31,0-.06,0-.1.02-.12.06-.19.25-.27.52-.27Zm2.36,1.02c-.25,0-.25.25,0,.25s.25-.25,0-.25Zm.83,1.16c-.1.02-.17.04-.17.06.1.02.23.02.33,0-.02-.02-.06-.04-.17-.06Zm1.55-.02c-.08,0-.08.12,0,.12.1,0,.1-.12,0-.12Zm.52.06s.02-.06-.04-.06h-.1c-.14,0-.19.06-.08.08.1.06.17.04.23-.02Zm.87,2.32c-.17,0-.25.02-.25.08,0,.1.1.17.33.17.31,0,.33-.25-.08-.25Zm.52-2.3s-.02-.06-.08-.08c-.23,0-.02.19.08.08Zm1.85-.25c-.25.1-.19.29.08.29.17,0,.25-.06.25-.19,0-.19-.06-.21-.33-.1Z"/>
        <path class="cls-2" d="m150.88,42.79l2.72.08c2.88.08,5.14.15,6.8.17,2.76.06,4.17.08,4.23.1.02,0,.02.02.02.06,0,.15-.15.46-.46.95l-.58.93h-5.97c-.12.17-.29.41-.52.75h-4.15c-.27.58-.5,1.02-.64,1.29l4.27-.1c1.58-.02,2.59-.04,3.03-.04.85,0,1.26.02,1.26.04,0,.06-.21.44-.6,1.08-.5.83-.64,1-.95,1.06-.23.04-1.76.25-4.65.6l-4.25.54-.58,1.12c-.29.58-.54,1.16-.5,1.16.19,0,3.09-.46,8.73-1.37.83-.15,1.37-.21,1.62-.21.15,0,.25.02.31.08.02.02.04.06.04.1,0,.15-.19.6-.58,1.33l-.66,1.31-6.53,1.41c-3.67.81-5.97,1.31-6.93,1.49h-.12c-.23,0-.58-.21-1.06-.6-1.22-1.02-1.49-1.27-1.49-1.51,0-.12.56-.97,1.68-2.59,1.12-1.6,1.72-2.41,1.82-2.47l.44-.06c.58-.08,1.24-.21,1.24-.27v-.04q-.02-.06.06-.06c.1,0,.17.04.21.12.06.08.66.12,1.8.12.85,0,1.26-.04,1.26-.1,0-.27-.44-.37-2.09-.46-.29-.02-.64-.02-1.04-.02-.5,0-.77.04-.79.1-.04.1-.12.08-.27-.06-.1-.1-.15-.17-.15-.23s.06-.19.17-.33c.06-.1.75-1.08,2.03-2.9l1.8-2.57Zm-6.28,10.45c.06-.02.08-.06.02-.08-.02-.02-.08-.02-.14,0-.15,0-.17.02-.06.06.06.02.12.04.19.02Zm4.81-.35c0-.06-.19-.1-.58-.1h-.48c-1.06.02-1.74.06-2.01.1-.27.04-.48.12-.6.27l-.23.27,1.62-.08c.93-.06,1.51-.1,1.78-.17.27-.04.42-.12.48-.25,0-.02.02-.02.02-.04Zm-1.66-4.75c.08.02.14.04.21.04.71-.06.12-.66-.19-.29-.19.15-.23.17-.02.25Zm5.02-.91h-.39c-.62,0-.23.31-.64.17h-.12c-.25,0-.64.04-1.16.12s-.85.15-.97.21c-.14.06-.1.12.12.17.04.02.12.02.27.02.37,0,.87-.06,1.49-.17.6-.1.97-.21,1.12-.31l.29-.21Zm.33,5.31c-.66.04-.71.12-1.8.12-.81.02-1.24.06-1.35.17-.08.1-.06.19.06.25.08.02.23.04.46.04.44,0,.93-.02,1.54-.08.58-.04.89-.08.91-.15s.15-.08.37-.02c.21.04.31-.02.31-.17,0-.12-.17-.19-.5-.17Zm-.29-4.71c-.15-.19-.17-.19-.44.12-.19.21-.23.35-.15.41.06.02.1.04.15.04.23,0,.39-.1.52-.29.06-.06.02-.15-.08-.29Zm2.63,4.69s-.12.06-.27.19c-.17.1-.15.17.04.19.35,0,.29-.37.23-.37Z"/>
      </g>
    </g>
  </g>
</svg>